<?xml version="1.0" encoding="UTF-8"?>
<svg xmlns="http://www.w3.org/2000/svg" xmlns:xlink="http://www.w3.org/1999/xlink" viewBox="0 0 274.18 241.41">
  <defs>
    <style>
      .cls-1, .cls-2 {
        fill: #003893;
      }

      .cls-3 {
        fill: #e5ecf8;
      }

      .cls-4 {
        fill: #9ffffa;
      }

      .cls-5 {
        fill: #bac1cc;
      }

      .cls-6 {
        fill: #ced3db;
      }

      .cls-7 {
        fill: #c9c6c1;
      }

      .cls-8 {
        fill: #d6dbe4;
      }

      .cls-9 {
        fill: #1b161e;
      }

      .cls-10 {
        fill: #0d0b0f;
      }

      .cls-11 {
        fill: #a2acbd;
      }

      .cls-12 {
        fill: #2774f1;
      }

      .cls-13 {
        fill: #838d9f;
      }

      .cls-14, .cls-15 {
        fill: #2673f0;
      }

      .cls-15 {
        mix-blend-mode: color-dodge;
      }

      .cls-2 {
        mix-blend-mode: multiply;
        opacity: .5;
      }

      .cls-16 {
        fill: #3dc4bd;
        mix-blend-mode: screen;
      }

      .cls-17 {
        isolation: isolate;
      }

      .cls-18 {
        fill: url(#_ÂÁ_Ï_ÌÌ_È_ËÂÌÚ_513);
      }
    </style>
    <linearGradient id="_ÂÁ_Ï_ÌÌ_È_ËÂÌÚ_513" data-name="¡ÂÁ˚ÏˇÌÌ˚È „‡‰ËÂÌÚ 513" x1="5192.88" y1="183.78" x2="5030.36" y2="183.78" gradientTransform="translate(5307.58) rotate(-180) scale(1 -1)" gradientUnits="userSpaceOnUse">
      <stop offset=".4" stop-color="#a2acbd"/>
      <stop offset=".58" stop-color="#bbc2cd"/>
    </linearGradient>
  </defs>
  <g class="cls-17">
    <g id="Layer_2" data-name="Layer 2">
      <g id="Layer_1-2" data-name="Layer 1">
        <g id="_11" data-name="11">
          <g>
            <path class="cls-2" d="M270.87,189.3L99.94,90.04c-3.52-2.05-8.78-2.44-13.04-1.24-4.25-1.2-9.5-.81-13.05,1.24L3.36,130.74c-4.47,2.58-4.49,6.76-.05,9.34l170.92,99.27c2.46,1.43,5.78,2.06,9,1.89,2.68-.14,5.37-.14,8.05,0,3.22,.17,6.54-.46,9.02-1.89l70.5-40.7c4.47-2.58,4.49-6.76,.05-9.34Z"/>
            <g>
              <g>
                <g class="cls-17">
                  <path class="cls-18" d="M274.18,184.65v9.43c0,1.7-1.13,3.4-3.38,4.7l-70.5,40.7c-4.47,2.58-11.68,2.58-16.12,0L13.26,140.21c-2.21-1.28-3.31-2.96-3.31-4.64v-9.43s264.23,58.5,264.23,58.5Z"/>
                  <polygon class="cls-7" points="172.18 232.51 169.92 231.2 169.92 214.55 172.18 215.86 172.18 232.51"/>
                  <polygon class="cls-7" points="27.87 148.69 25.61 147.38 25.61 131.24 27.87 132.54 27.87 148.69"/>
                  <path class="cls-3" d="M13.32,121.44c-4.47,2.58-4.49,6.76-.05,9.34l170.92,99.27c4.44,2.58,11.65,2.58,16.12,0l70.5-40.7c4.47-2.58,4.49-6.76,.05-9.34L99.94,80.74c-4.44-2.58-11.66-2.58-16.12,0L13.32,121.44Z"/>
                  <path class="cls-1" d="M192.24,231.19c2.91,0,5.64-.65,7.68-1.83l70.5-40.7c1.91-1.1,2.97-2.53,2.97-4,0-1.46-1.03-2.87-2.92-3.97L99.55,81.42c-2.03-1.18-4.75-1.83-7.66-1.83s-5.63,.65-7.68,1.83L13.72,122.13c-1.91,1.1-2.97,2.53-2.97,4,0,1.47,1.04,2.88,2.92,3.97l170.92,99.27c2.03,1.18,4.75,1.83,7.65,1.83Z"/>
                </g>
                <path class="cls-5" d="M128.7,205l20.74,11.97c1.45,.83,2.62,.34,2.62-1.11s-1.17-3.3-2.62-4.13l-20.74-11.97c-1.45-.83-2.62-.34-2.62,1.11s1.17,3.3,2.62,4.13Z"/>
                <path class="cls-13" d="M210.34,228.3c.41,0,.55,.44,.31,.99-.24,.55-.76,.99-1.17,.99s-.55-.44-.31-.99c.24-.55,.76-.99,1.17-.99Zm2.64-1.21c-.24,.55-.1,.99,.31,.99s.93-.44,1.17-.99c.24-.55,.1-.99-.31-.99s-.93,.44-1.17,.99Zm3.81-2.2c-.24,.55-.1,.99,.31,.99s.93-.44,1.17-.99c.24-.55,.1-.99-.31-.99s-.93,.44-1.17,.99Zm3.81-2.2c-.24,.55-.1,.99,.31,.99s.93-.44,1.17-.99,.1-.99-.31-.99-.93,.44-1.17,.99Z"/>
                <path class="cls-13" d="M248.53,206.25c.41,0,.55,.44,.31,.99s-.76,.99-1.17,.99-.55-.44-.31-.99c.24-.55,.76-.99,1.17-.99Zm2.64-1.21c-.24,.55-.1,.99,.31,.99s.93-.44,1.17-.99c.24-.55,.1-.99-.31-.99s-.93,.44-1.17,.99Zm3.81-2.2c-.24,.55-.1,.99,.31,.99s.93-.44,1.17-.99c.24-.55,.1-.99-.31-.99s-.93,.44-1.17,.99Zm3.81-2.2c-.24,.55-.1,.99,.31,.99s.93-.44,1.17-.99c.24-.55,.1-.99-.31-.99s-.93,.44-1.17,.99Z"/>
                <path class="cls-13" d="M230.84,218.63l7.04-4.07c.88-.51,1.59-1.63,1.59-2.51s-.71-1.18-1.59-.67l-7.04,4.07c-.88,.51-1.59,1.63-1.59,2.51s.71,1.18,1.59,.67Z"/>
                <g class="cls-17">
                  <g class="cls-17">
                    <g class="cls-17">
                      <path class="cls-8" d="M51.33,155.61l.7-.41c-.57-.33-1.08-.36-1.46-.14l-.7,.4c.37-.22,.89-.19,1.46,.14h0Z"/>
                    </g>
                  </g>
                  <polygon class="cls-6" points="73.93 168.66 74.63 168.26 52.03 155.21 51.33 155.61 73.93 168.66"/>
                  <g class="cls-17">
                    <g class="cls-17">
                      <path class="cls-8" d="M75.38,173.51l.7-.4c.37-.21,.59-.67,.6-1.31,0-1.3-.91-2.88-2.04-3.53l-.7,.4c1.13,.65,2.04,2.24,2.04,3.53,0,.64-.23,1.1-.6,1.31h0Z"/>
                    </g>
                  </g>
                  <path class="cls-11" d="M51.33,155.61c-1.13-.65-2.05-.13-2.05,1.17,0,1.3,.91,2.88,2.04,3.53l22.6,13.05c1.13,.65,2.05,.13,2.05-1.17,0-1.3-.91-2.88-2.04-3.53l-22.6-13.05Z"/>
                </g>
                <path class="cls-9" d="M43.23,115.29l32.73-18.9c3.2-1.85,3.2-4.84,0-6.69l-3.03-1.75-44.32,25.59,3.03,1.75c3.2,1.85,8.39,1.85,11.59,0Z"/>
              </g>
              <path class="cls-10" d="M47.41,107.14c.53,.31,1.4,.31,1.93,0l12.5-7.21c.53-.31,.53-.81,0-1.12-.53-.31-1.4-.31-1.93,0l-12.5,7.21c-.53,.31-.53,.81,0,1.12Z"/>
              <path class="cls-10" d="M39.09,110.54c-.3,.66,.37,1.33,1.51,1.51,1.14,.18,2.3-.21,2.61-.87,.3-.66-.37-1.33-1.51-1.51-1.14-.18-2.3,.21-2.61,.87Z"/>
            </g>
            <path class="cls-4" d="M192.24,219.81c-2.98,0-5.76-.67-7.84-1.88L13.48,118.66c-2.01-1.17-3.12-2.69-3.11-4.3,0-1.61,1.12-3.15,3.16-4.33l70.5-40.7c2.1-1.21,4.89-1.88,7.86-1.88s5.76,.67,7.85,1.88l170.92,99.27c2,1.17,3.11,2.69,3.11,4.3,0,1.62-1.13,3.16-3.16,4.33l-70.5,40.7c-2.1,1.21-4.89,1.88-7.87,1.88ZM91.89,68.21c-2.84,0-5.5,.63-7.48,1.78L13.91,110.69c-1.79,1.03-2.78,2.34-2.78,3.67,0,1.33,.97,2.62,2.73,3.64l170.92,99.27c1.97,1.14,4.62,1.78,7.46,1.78s5.5-.63,7.49-1.78l70.5-40.7c1.79-1.03,2.78-2.34,2.78-3.68,0-1.32-.97-2.62-2.73-3.64L99.36,69.99c-1.97-1.15-4.62-1.78-7.47-1.78Z"/>
            <path class="cls-12" d="M192.24,207.04c2.91,0,5.64-.65,7.68-1.83l70.5-40.7c1.91-1.1,2.97-2.53,2.97-4,0-1.46-1.03-2.87-2.92-3.97L99.55,57.27c-2.03-1.18-4.75-1.83-7.66-1.83s-5.63,.65-7.68,1.83L13.72,97.97c-1.91,1.1-2.97,2.53-2.97,4,0,1.47,1.04,2.88,2.92,3.97l170.92,99.27c2.03,1.18,4.75,1.83,7.65,1.83Z"/>
          </g>
          <g>
            <path class="cls-15" d="M119.04,69.02l15.53-8.97c2.24-1.29,5.86-1.29,8.09,0l15.43,8.97c2.23,1.29,2.22,3.39-.03,4.69l-15.53,8.97c-2.24,1.29-5.86,1.29-8.09,0l-15.43-8.97c-2.23-1.3-2.22-3.39,.02-4.69Z"/>
            <path class="cls-16" d="M85.21,49.49l15.53-8.97c2.24-1.3,5.87-1.3,8.09,0l15.43,8.97c2.23,1.29,2.22,3.39-.03,4.69l-15.53,8.97c-2.24,1.29-5.86,1.29-8.09,0l-15.43-8.97c-2.23-1.3-2.22-3.39,.02-4.69Z"/>
            <path class="cls-15" d="M85.57,88.34l15.53-8.97c2.24-1.29,5.87-1.29,8.09,0l15.43,8.97c2.23,1.29,2.22,3.39-.03,4.69l-15.53,8.97c-2.24,1.29-5.86,1.29-8.09,0l-15.43-8.97c-2.23-1.3-2.22-3.39,.02-4.69Z"/>
            <path class="cls-16" d="M51.74,68.81l15.53-8.97c2.24-1.3,5.86-1.29,8.09,0l15.43,8.97c2.23,1.3,2.22,3.39-.03,4.69l-15.53,8.97c-2.24,1.29-5.86,1.29-8.09,0l-15.43-8.97c-2.23-1.29-2.22-3.39,.02-4.69Z"/>
            <path class="cls-15" d="M52.1,107.66l15.53-8.97c2.24-1.3,5.86-1.3,8.09,0l15.43,8.97c2.23,1.3,2.22,3.39-.03,4.69l-15.53,8.97c-2.24,1.29-5.86,1.29-8.09,0l-15.43-8.97c-2.23-1.29-2.22-3.39,.02-4.69Z"/>
            <path class="cls-16" d="M18.27,88.13l15.53-8.97c2.24-1.29,5.87-1.29,8.09,0l15.43,8.97c2.23,1.29,2.22,3.39-.03,4.69l-15.53,8.97c-2.24,1.29-5.86,1.29-8.09,0l-15.43-8.97c-2.23-1.29-2.22-3.39,.02-4.69Z"/>
            <g class="cls-17">
              <path class="cls-4" d="M119.01,69.11l15.43,8.97c2.23,1.29,5.85,1.29,8.09,0l15.53-8.97c1.13-.65,1.69-1.51,1.69-2.36v3.24c.01,.85-.55,1.71-1.68,2.36l-15.53,8.97c-2.24,1.29-5.86,1.29-8.09,0l-15.43-8.97c-1.11-.64-1.66-1.49-1.66-2.33v-3.24c0,.84,.55,1.68,1.65,2.33Z"/>
              <path class="cls-4" d="M138.63,55.24c1.4,0,2.7,.31,3.66,.87l15.43,8.97c.83,.48,1.29,1.08,1.29,1.68,0,.6-.48,1.22-1.31,1.7l-15.53,8.97c-.97,.56-2.27,.87-3.67,.87s-2.7-.31-3.66-.87l-15.43-8.97c-.83-.48-1.29-1.08-1.29-1.68,0-.6,.48-1.21,1.31-1.69l15.53-8.97c.97-.56,2.28-.87,3.67-.87h0Zm0-.76c-1.46,0-2.93,.32-4.05,.97l-15.53,8.97c-2.24,1.29-2.25,3.39-.02,4.69l15.43,8.97c1.11,.65,2.58,.97,4.04,.97s2.93-.32,4.05-.97l15.53-8.97c2.24-1.29,2.25-3.39,.03-4.69l-15.43-8.97c-1.11-.65-2.58-.97-4.04-.97h0Z"/>
            </g>
            <g class="cls-17">
              <path class="cls-4" d="M85.18,23.54l15.43,8.97c2.23,1.3,5.85,1.3,8.09,0l15.53-8.97c1.13-.65,1.69-1.51,1.69-2.36v3.24c.01,.85-.55,1.71-1.68,2.36l-15.53,8.97c-2.24,1.29-5.86,1.29-8.09,0l-15.43-8.97c-1.11-.64-1.66-1.49-1.66-2.33v-3.24c0,.84,.55,1.68,1.65,2.33Z"/>
              <path class="cls-14" d="M85.21,18.85l15.53-8.97c2.24-1.29,5.87-1.29,8.09,0l15.43,8.97c2.23,1.3,2.22,3.39-.03,4.69l-15.53,8.97c-2.24,1.29-5.86,1.29-8.09,0l-15.43-8.97c-2.23-1.29-2.22-3.39,.02-4.69Z"/>
            </g>
            <g class="cls-17">
              <path class="cls-4" d="M85.55,88.43l15.43,8.97c2.23,1.3,5.85,1.3,8.09,0l15.53-8.97c1.13-.65,1.69-1.51,1.69-2.36v3.24c.01,.85-.55,1.71-1.68,2.36l-15.53,8.97c-2.24,1.29-5.86,1.29-8.09,0l-15.43-8.97c-1.11-.64-1.66-1.49-1.66-2.33v-3.24c0,.84,.55,1.68,1.65,2.33Z"/>
              <path class="cls-4" d="M105.16,74.56c1.4,0,2.7,.31,3.66,.87l15.43,8.97c.83,.48,1.29,1.08,1.29,1.68,0,.6-.48,1.22-1.31,1.7l-15.54,8.97c-.97,.56-2.27,.87-3.67,.87s-2.7-.31-3.66-.87l-15.43-8.97c-.83-.48-1.29-1.08-1.29-1.68,0-.6,.48-1.21,1.31-1.69l15.54-8.97c.97-.56,2.28-.87,3.67-.87h0Zm0-.76c-1.46,0-2.93,.32-4.05,.97l-15.53,8.97c-2.24,1.29-2.25,3.39-.02,4.69l15.43,8.97c1.11,.65,2.58,.97,4.04,.97s2.93-.32,4.05-.97l15.53-8.97c2.24-1.29,2.25-3.39,.03-4.69l-15.43-8.97c-1.11-.65-2.58-.97-4.04-.97h0Z"/>
            </g>
            <g class="cls-17">
              <path class="cls-4" d="M51.71,54.66l15.43,8.97c2.23,1.29,5.85,1.29,8.09,0l15.54-8.97c1.13-.65,1.69-1.51,1.69-2.36v3.24c.01,.85-.55,1.71-1.68,2.36l-15.53,8.97c-2.24,1.29-5.86,1.29-8.09,0l-15.43-8.97c-1.11-.64-1.66-1.49-1.66-2.33v-3.24c0,.84,.55,1.68,1.65,2.33Z"/>
              <path class="cls-14" d="M51.74,49.98l15.53-8.97c2.24-1.29,5.86-1.29,8.09,0l15.43,8.97c2.23,1.29,2.22,3.39-.03,4.69l-15.53,8.97c-2.24,1.29-5.86,1.29-8.09,0l-15.43-8.97c-2.23-1.29-2.22-3.39,.02-4.69Z"/>
            </g>
            <g class="cls-17">
              <path class="cls-4" d="M52.08,107.75l15.43,8.97c2.23,1.3,5.85,1.3,8.09,0l15.53-8.97c1.13-.65,1.69-1.51,1.69-2.36v3.24c.01,.85-.55,1.71-1.68,2.36l-15.54,8.97c-2.24,1.29-5.86,1.29-8.09,0l-15.43-8.97c-1.11-.64-1.66-1.49-1.66-2.33v-3.24c0,.84,.55,1.68,1.65,2.33Z"/>
              <path class="cls-4" d="M71.69,93.89c1.4,0,2.7,.31,3.66,.87l15.43,8.97c.83,.48,1.29,1.08,1.29,1.68,0,.6-.48,1.22-1.31,1.7l-15.53,8.97c-.97,.56-2.27,.87-3.67,.87s-2.7-.31-3.66-.87l-15.43-8.97c-.83-.48-1.29-1.08-1.29-1.68,0-.6,.48-1.21,1.31-1.69l15.53-8.97c.97-.56,2.28-.87,3.67-.87h0Zm0-.76c-1.46,0-2.93,.32-4.05,.97l-15.53,8.97c-2.24,1.29-2.25,3.39-.02,4.69l15.43,8.97c1.11,.65,2.58,.97,4.04,.97s2.93-.32,4.05-.97l15.54-8.97c2.24-1.29,2.25-3.39,.03-4.69l-15.43-8.97c-1.11-.65-2.58-.97-4.04-.97h0Z"/>
            </g>
            <g class="cls-17">
              <path class="cls-4" d="M18.25,85.91l15.43,8.97c2.23,1.29,5.85,1.29,8.09,0l15.53-8.97c1.13-.65,1.69-1.51,1.69-2.36v3.24c.01,.85-.55,1.71-1.68,2.36l-15.53,8.97c-2.24,1.29-5.86,1.29-8.09,0l-15.43-8.97c-1.11-.64-1.66-1.49-1.66-2.33v-3.24c0,.84,.55,1.68,1.65,2.33Z"/>
              <path class="cls-14" d="M18.27,81.23l15.53-8.97c2.24-1.29,5.87-1.29,8.09,0l15.43,8.97c2.23,1.29,2.22,3.39-.03,4.69l-15.53,8.97c-2.24,1.29-5.86,1.29-8.09,0l-15.43-8.97c-2.23-1.3-2.22-3.39,.02-4.69Z"/>
            </g>
            <path class="cls-15" d="M154.57,89.53l15.53-8.97c2.24-1.29,5.86-1.29,8.09,0l15.43,8.97c2.23,1.29,2.22,3.39-.03,4.69l-15.54,8.97c-2.24,1.29-5.86,1.29-8.09,0l-15.43-8.97c-2.23-1.29-2.22-3.39,.02-4.69Z"/>
            <path class="cls-15" d="M121.11,108.86l15.53-8.97c2.24-1.29,5.87-1.29,8.09,0l15.43,8.97c2.23,1.29,2.22,3.39-.03,4.69l-15.53,8.97c-2.24,1.29-5.86,1.29-8.09,0l-15.43-8.97c-2.23-1.29-2.22-3.39,.02-4.69Z"/>
            <path class="cls-15" d="M87.64,128.18l15.53-8.97c2.24-1.29,5.87-1.29,8.09,0l15.43,8.97c2.23,1.29,2.22,3.39-.03,4.69l-15.53,8.97c-2.24,1.29-5.86,1.29-8.09,0l-15.43-8.97c-2.23-1.3-2.22-3.39,.02-4.69Z"/>
            <path class="cls-15" d="M189.4,109.64l15.53-8.97c2.24-1.29,5.87-1.29,8.09,0l15.43,8.97c2.23,1.29,2.22,3.39-.03,4.69l-15.53,8.97c-2.24,1.29-5.86,1.29-8.09,0l-15.43-8.97c-2.23-1.29-2.22-3.39,.02-4.69Z"/>
            <path class="cls-15" d="M155.93,128.96l15.53-8.97c2.24-1.29,5.86-1.29,8.09,0l15.43,8.97c2.23,1.29,2.22,3.39-.03,4.69l-15.53,8.97c-2.24,1.29-5.86,1.29-8.09,0l-15.43-8.97c-2.23-1.29-2.22-3.39,.02-4.69Z"/>
            <path class="cls-15" d="M122.46,148.29l15.53-8.97c2.24-1.29,5.87-1.29,8.09,0l15.43,8.97c2.23,1.29,2.22,3.39-.03,4.69l-15.53,8.97c-2.24,1.29-5.86,1.29-8.09,0l-15.43-8.97c-2.23-1.3-2.22-3.39,.02-4.69Z"/>
            <path class="cls-15" d="M225.08,130.24l15.53-8.97c2.24-1.29,5.87-1.29,8.09,0l15.43,8.97c2.23,1.29,2.22,3.39-.03,4.69l-15.53,8.97c-2.24,1.29-5.86,1.29-8.09,0l-15.43-8.97c-2.23-1.29-2.22-3.39,.02-4.69Z"/>
            <path class="cls-15" d="M191.61,149.56l15.53-8.97c2.24-1.29,5.87-1.29,8.09,0l15.43,8.97c2.23,1.29,2.22,3.39-.03,4.69l-15.53,8.97c-2.24,1.29-5.86,1.29-8.09,0l-15.43-8.97c-2.23-1.3-2.22-3.39,.02-4.69Z"/>
            <path class="cls-15" d="M158.14,168.89l15.53-8.97c2.24-1.29,5.86-1.29,8.09,0l15.43,8.97c2.23,1.29,2.22,3.39-.03,4.69l-15.53,8.97c-2.24,1.29-5.86,1.29-8.09,0l-15.43-8.97c-2.23-1.3-2.22-3.39,.02-4.69Z"/>
            <g class="cls-17">
              <path class="cls-4" d="M154.55,89.63l15.43,8.97c2.23,1.29,5.85,1.29,8.09,0l15.53-8.97c1.13-.65,1.69-1.51,1.69-2.36v3.24c.01,.85-.55,1.71-1.68,2.36l-15.54,8.97c-2.24,1.29-5.86,1.29-8.09,0l-15.43-8.97c-1.11-.64-1.66-1.49-1.66-2.33v-3.24c0,.84,.55,1.68,1.65,2.33Z"/>
              <path class="cls-4" d="M174.16,75.76c1.4,0,2.7,.31,3.66,.87l15.43,8.97c.83,.48,1.29,1.08,1.29,1.68,0,.6-.48,1.22-1.31,1.7l-15.53,8.97c-.97,.56-2.27,.87-3.67,.87s-2.7-.31-3.66-.87l-15.43-8.97c-.83-.48-1.29-1.08-1.29-1.68,0-.6,.48-1.21,1.31-1.69l15.53-8.97c.97-.56,2.28-.87,3.67-.87h0Zm0-.76c-1.46,0-2.93,.32-4.05,.97l-15.53,8.97c-2.24,1.29-2.25,3.39-.02,4.69l15.43,8.97c1.11,.65,2.58,.97,4.04,.97s2.93-.32,4.05-.97l15.54-8.97c2.24-1.29,2.25-3.39,.03-4.69l-15.43-8.97c-1.11-.65-2.58-.97-4.04-.97h0Z"/>
            </g>
            <g class="cls-17">
              <path class="cls-4" d="M121.08,108.95l15.43,8.97c2.23,1.29,5.85,1.29,8.09,0l15.53-8.97c1.13-.65,1.69-1.51,1.69-2.36v3.24c.01,.85-.55,1.71-1.68,2.36l-15.53,8.97c-2.24,1.29-5.86,1.29-8.09,0l-15.43-8.97c-1.11-.64-1.66-1.49-1.66-2.33v-3.24c0,.84,.55,1.68,1.65,2.33Z"/>
              <path class="cls-4" d="M140.69,95.08c1.4,0,2.7,.31,3.66,.87l15.43,8.97c.83,.48,1.29,1.08,1.29,1.68,0,.6-.48,1.22-1.31,1.7l-15.53,8.97c-.97,.56-2.27,.87-3.67,.87s-2.7-.31-3.66-.87l-15.43-8.97c-.83-.48-1.29-1.08-1.29-1.68,0-.6,.48-1.21,1.31-1.69l15.53-8.97c.97-.56,2.28-.87,3.67-.87h0Zm0-.76c-1.46,0-2.93,.32-4.05,.97l-15.53,8.97c-2.24,1.29-2.25,3.39-.02,4.69l15.43,8.97c1.11,.65,2.58,.97,4.04,.97s2.93-.32,4.05-.97l15.53-8.97c2.24-1.29,2.25-3.39,.03-4.69l-15.43-8.97c-1.11-.65-2.58-.97-4.04-.97h0Z"/>
            </g>
            <g class="cls-17">
              <path class="cls-4" d="M87.61,128.27l15.43,8.97c2.23,1.29,5.85,1.3,8.09,0l15.53-8.97c1.13-.65,1.69-1.51,1.69-2.36v3.24c.01,.85-.55,1.71-1.68,2.36l-15.53,8.97c-2.24,1.29-5.86,1.29-8.09,0l-15.43-8.97c-1.11-.64-1.66-1.49-1.66-2.33v-3.24c0,.84,.55,1.68,1.65,2.33Z"/>
              <path class="cls-4" d="M107.23,114.4c1.4,0,2.7,.31,3.66,.87l15.43,8.97c.83,.48,1.29,1.08,1.29,1.68,0,.6-.48,1.22-1.31,1.7l-15.53,8.97c-.97,.56-2.27,.87-3.67,.87s-2.7-.31-3.66-.87l-15.43-8.97c-.83-.48-1.29-1.08-1.29-1.68,0-.6,.48-1.21,1.31-1.69l15.53-8.97c.97-.56,2.28-.87,3.67-.87h0Zm0-.76c-1.46,0-2.93,.32-4.05,.97l-15.53,8.97c-2.24,1.29-2.25,3.39-.02,4.69l15.43,8.97c1.11,.65,2.58,.97,4.04,.97s2.93-.32,4.05-.97l15.53-8.97c2.24-1.29,2.25-3.39,.03-4.69l-15.43-8.97c-1.11-.65-2.58-.97-4.04-.97h0Z"/>
            </g>
            <path class="cls-4" d="M104.66,25.31c-1.54,0-3.07-.34-4.23-1.02l-15.43-8.97c-1.2-.69-1.86-1.64-1.86-2.66,0-1.03,.67-1.98,1.88-2.68l.19,.33-.19-.33L100.55,1.01c2.34-1.35,6.15-1.35,8.47,0l15.43,8.97c1.2,.69,1.86,1.64,1.85,2.66,0,1.03-.67,1.98-1.88,2.68l-15.53,8.97c-1.17,.67-2.71,1.01-4.24,1.01Zm.14-24.56c-1.4,0-2.8,.31-3.86,.93l-15.54,8.97c-.96,.56-1.5,1.27-1.5,2.02,0,.74,.52,1.46,1.47,2.01l15.43,8.97c2.12,1.23,5.58,1.23,7.71,0l15.53-8.97c.97-.56,1.5-1.28,1.5-2.02,0-.74-.52-1.45-1.47-2.01L108.65,1.67c-1.06-.62-2.46-.92-3.85-.92Z"/>
            <path class="cls-4" d="M71.19,56.43c-1.53,0-3.07-.34-4.23-1.02l-15.43-8.97c-1.2-.69-1.86-1.64-1.85-2.66,0-1.03,.66-1.98,1.87-2.68l15.54-8.97c2.34-1.35,6.15-1.35,8.47,0l15.43,8.97c1.2,.69,1.86,1.64,1.85,2.66,0,1.03-.67,1.98-1.88,2.68l-15.53,8.97c-1.17,.67-2.7,1.01-4.24,1.01Zm-19.26-14.67c-.96,.56-1.5,1.28-1.5,2.02s.52,1.45,1.47,2.01l15.43,8.97c2.12,1.23,5.58,1.23,7.71,0l15.53-8.97c.97-.56,1.5-1.28,1.5-2.02,0-.74-.52-1.45-1.47-2.01l-15.43-8.97c-2.13-1.23-5.59-1.23-7.71,0l-15.54,8.97Z"/>
            <path class="cls-4" d="M37.72,87.68c-1.54,0-3.07-.34-4.23-1.02l-15.43-8.97c-1.2-.69-1.86-1.64-1.85-2.66,0-1.03,.67-1.98,1.88-2.68l15.53-8.97c2.34-1.35,6.15-1.35,8.47,0l15.43,8.97c1.2,.69,1.86,1.64,1.85,2.66,0,1.03-.67,1.98-1.88,2.68l-15.53,8.97c-1.17,.68-2.7,1.01-4.24,1.01Zm.14-24.56c-1.4,0-2.8,.31-3.86,.93l-15.53,8.97c-.96,.56-1.5,1.28-1.5,2.02s.52,1.45,1.47,2.01l15.43,8.97c2.12,1.23,5.58,1.23,7.71,0l15.53-8.97c.97-.56,1.5-1.28,1.5-2.02,0-.74-.52-1.45-1.47-2.01l-15.43-8.97c-1.06-.61-2.46-.92-3.85-.92Z"/>
          </g>
        </g>
      </g>
    </g>
  </g>
</svg>