<?xml version="1.0" encoding="UTF-8"?>
<svg xmlns="http://www.w3.org/2000/svg" xmlns:xlink="http://www.w3.org/1999/xlink" viewBox="0 0 274.12 286.48">
  <defs>
    <style>
      .cls-1 {
        filter: url(#luminosity-noclip-6);
      }

      .cls-2 {
        filter: url(#luminosity-noclip-4);
      }

      .cls-3 {
        mask: url(#mask);
      }

      .cls-4 {
        filter: url(#luminosity-noclip-2);
      }

      .cls-5, .cls-6 {
        fill: #003893;
      }

      .cls-7 {
        fill: #008a8f;
      }

      .cls-8 {
        fill: #001e7f;
      }

      .cls-9 {
        fill: #f5f9ff;
      }

      .cls-10 {
        fill: #fff;
      }

      .cls-11 {
        fill: #f0a986;
      }

      .cls-12 {
        fill: #21aaa0;
      }

      .cls-13 {
        fill: #41dad6;
      }

      .cls-14 {
        fill: #3dc4bd;
      }

      .cls-15 {
        fill: #94a0b4;
      }

      .cls-16, .cls-17 {
        fill: #4ffff6;
      }

      .cls-18 {
        opacity: .8;
      }

      .cls-18, .cls-19 {
        fill: url(#_ÂÁ_Ï_ÌÌ_È_ËÂÌÚ_301);
        mix-blend-mode: color-dodge;
      }

      .cls-19 {
        opacity: .6;
      }

      .cls-20 {
        fill: url(#_ÂÁ_Ï_ÌÌ_È_ËÂÌÚ_65);
      }

      .cls-20, .cls-21, .cls-6 {
        mix-blend-mode: multiply;
      }

      .cls-21 {
        fill: url(#_ÂÁ_Ï_ÌÌ_È_ËÂÌÚ_26);
      }

      .cls-6, .cls-22, .cls-23 {
        opacity: .5;
      }

      .cls-24 {
        fill: url(#_ÂÁ_Ï_ÌÌ_È_ËÂÌÚ_434);
        mix-blend-mode: screen;
      }

      .cls-25 {
        isolation: isolate;
      }

      .cls-26 {
        fill: url(#_ÂÁ_Ï_ÌÌ_È_ËÂÌÚ_476);
      }

      .cls-27 {
        mask: url(#mask-3);
      }

      .cls-28 {
        mask: url(#mask-2);
      }

      .cls-29 {
        mask: url(#mask-5);
      }

      .cls-30 {
        mask: url(#mask-4);
      }

      .cls-31 {
        mask: url(#mask-1);
      }

      .cls-22 {
        fill: #0656d7;
      }

      .cls-23 {
        fill: #ffe0ba;
      }

      .cls-17 {
        opacity: .4;
      }
    </style>
    <linearGradient id="_ÂÁ_Ï_ÌÌ_È_ËÂÌÚ_476" data-name="¡ÂÁ˚ÏˇÌÌ˚È „‡‰ËÂÌÚ 476" x1="69.58" y1="233.03" x2="234.69" y2="233.03" gradientUnits="userSpaceOnUse">
      <stop offset="0" stop-color="#a2acbd"/>
      <stop offset=".65" stop-color="#c4cdda"/>
      <stop offset="1" stop-color="#d2dae6"/>
    </linearGradient>
    <filter id="luminosity-noclip-2" data-name="luminosity-noclip" x="30.83" width="243.29" height="214.75" color-interpolation-filters="sRGB" filterUnits="userSpaceOnUse">
      <feFlood flood-color="#fff" result="bg"/>
      <feBlend in="SourceGraphic" in2="bg"/>
    </filter>
    <filter id="luminosity-noclip-3" x="11426.1" y="-14298.93" width="-32766" height="32766" color-interpolation-filters="sRGB" filterUnits="userSpaceOnUse">
      <feFlood flood-color="#fff" result="bg"/>
      <feBlend in="SourceGraphic" in2="bg"/>
    </filter>
    <mask id="mask-1" x="11426.1" y="-14298.93" width="-32766" height="32766" maskUnits="userSpaceOnUse"/>
    <linearGradient id="_ÂÁ_Ï_ÌÌ_È_ËÂÌÚ_65" data-name="¡ÂÁ˚ÏˇÌÌ˚È „‡‰ËÂÌÚ 65" x1="152.47" y1="3.18" x2="152.47" y2="206.41" gradientUnits="userSpaceOnUse">
      <stop offset="0" stop-color="#000"/>
      <stop offset=".08" stop-color="#1e1e1e"/>
      <stop offset=".28" stop-color="#616161"/>
      <stop offset=".46" stop-color="#999"/>
      <stop offset=".63" stop-color="#c5c5c5"/>
      <stop offset=".78" stop-color="#e4e4e4"/>
      <stop offset=".91" stop-color="#f8f8f8"/>
      <stop offset="1" stop-color="#fff"/>
    </linearGradient>
    <mask id="mask" x="30.83" width="243.29" height="214.75" maskUnits="userSpaceOnUse">
      <g class="cls-4">
        <g class="cls-31">
          <path class="cls-20" d="M100.85,189.2c2.51,8.92,12.02,17.32,28.52,22.24,14.78,4.4,30.66,4.41,45.45,.02,16.27-4.83,25.75-13.03,28.46-21.79,1.97-6.39,3.68-12.86,6.06-19.11L274.12,0H30.83L95.04,170.71c2.28,6.05,4.06,12.26,5.81,18.49Z"/>
        </g>
      </g>
    </mask>
    <linearGradient id="_ÂÁ_Ï_ÌÌ_È_ËÂÌÚ_301" data-name="¡ÂÁ˚ÏˇÌÌ˚È „‡‰ËÂÌÚ 301" x1="152.47" y1="3.18" x2="152.47" y2="206.41" gradientUnits="userSpaceOnUse">
      <stop offset="0" stop-color="#000"/>
      <stop offset=".14" stop-color="#0c2726"/>
      <stop offset=".36" stop-color="#1d5e5b"/>
      <stop offset=".56" stop-color="#2b8a85"/>
      <stop offset=".74" stop-color="#34a9a3"/>
      <stop offset=".89" stop-color="#3abdb6"/>
      <stop offset="1" stop-color="#3dc4bd"/>
    </linearGradient>
    <filter id="luminosity-noclip-4" x="30.83" width="243.29" height="214.75" color-interpolation-filters="sRGB" filterUnits="userSpaceOnUse">
      <feFlood flood-color="#fff" result="bg"/>
      <feBlend in="SourceGraphic" in2="bg"/>
    </filter>
    <filter id="luminosity-noclip-5" x="11426.1" y="-14298.93" width="-32766" height="32766" color-interpolation-filters="sRGB" filterUnits="userSpaceOnUse">
      <feFlood flood-color="#fff" result="bg"/>
      <feBlend in="SourceGraphic" in2="bg"/>
    </filter>
    <mask id="mask-3" x="11426.1" y="-14298.93" width="-32766" height="32766" maskUnits="userSpaceOnUse"/>
    <mask id="mask-2" x="30.83" width="243.29" height="214.75" maskUnits="userSpaceOnUse">
      <g class="cls-2">
        <g class="cls-27">
          <path class="cls-20" d="M100.85,189.2c2.51,8.92,12.02,17.32,28.52,22.24,14.78,4.4,30.66,4.41,45.45,.02,16.27-4.83,25.75-13.03,28.46-21.79,1.97-6.39,3.68-12.86,6.06-19.11L274.12,0H30.83L95.04,170.71c2.28,6.05,4.06,12.26,5.81,18.49Z"/>
        </g>
      </g>
    </mask>
    <filter id="luminosity-noclip-6" x="188.58" y="218.86" width="41.7" height="48.15" color-interpolation-filters="sRGB" filterUnits="userSpaceOnUse">
      <feFlood flood-color="#fff" result="bg"/>
      <feBlend in="SourceGraphic" in2="bg"/>
    </filter>
    <filter id="luminosity-noclip-7" x="11426.1" y="-14298.93" width="-32766" height="32766" color-interpolation-filters="sRGB" filterUnits="userSpaceOnUse">
      <feFlood flood-color="#fff" result="bg"/>
      <feBlend in="SourceGraphic" in2="bg"/>
    </filter>
    <mask id="mask-5" x="11426.1" y="-14298.93" width="-32766" height="32766" maskUnits="userSpaceOnUse"/>
    <radialGradient id="_ÂÁ_Ï_ÌÌ_È_ËÂÌÚ_26" data-name="¡ÂÁ˚ÏˇÌÌ˚È „‡‰ËÂÌÚ 26" cx="209.42" cy="-1602.75" fx="209.42" fy="-1602.75" r="20.85" gradientTransform="translate(0 1966.61) rotate(-30) scale(1.15 .87) skewX(-23.41)" gradientUnits="userSpaceOnUse">
      <stop offset="0" stop-color="#fff"/>
      <stop offset=".1" stop-color="#f9f9f9"/>
      <stop offset=".22" stop-color="#e9e9e9"/>
      <stop offset=".36" stop-color="#cfcfcf"/>
      <stop offset=".51" stop-color="#ababab"/>
      <stop offset=".66" stop-color="#7d7d7d"/>
      <stop offset=".83" stop-color="#444"/>
      <stop offset=".99" stop-color="#020202"/>
      <stop offset="1" stop-color="#000"/>
    </radialGradient>
    <mask id="mask-4" x="188.58" y="218.86" width="41.7" height="48.15" maskUnits="userSpaceOnUse">
      <g class="cls-1">
        <g class="cls-29">
          <path class="cls-21" d="M230.27,230.9c0,11.51-9.33,26.24-20.85,32.88-11.51,6.65-20.85,2.7-20.85-8.81s9.33-26.24,20.85-32.88c11.51-6.65,20.85-2.7,20.85,8.81Z"/>
        </g>
      </g>
    </mask>
    <radialGradient id="_ÂÁ_Ï_ÌÌ_È_ËÂÌÚ_434" data-name="¡ÂÁ˚ÏˇÌÌ˚È „‡‰ËÂÌÚ 434" cx="209.42" cy="-1602.75" fx="209.42" fy="-1602.75" r="20.85" gradientTransform="translate(0 1966.61) rotate(-30) scale(1.15 .87) skewX(-23.41)" gradientUnits="userSpaceOnUse">
      <stop offset="0" stop-color="#fff"/>
      <stop offset=".1" stop-color="#f9f9f9"/>
      <stop offset=".22" stop-color="#e9e9e9"/>
      <stop offset=".36" stop-color="#cfcfcf"/>
      <stop offset=".51" stop-color="#ababab"/>
      <stop offset=".66" stop-color="#7d7d7d"/>
      <stop offset=".83" stop-color="#444"/>
      <stop offset=".99" stop-color="#020202"/>
      <stop offset="1" stop-color="#000"/>
    </radialGradient>
  </defs>
  <g class="cls-25">
    <g id="Layer_2" data-name="Layer 2">
      <g id="Layer_1-2" data-name="Layer 1">
        <g id="_6" data-name="6">
          <g>
            <g>
              <path class="cls-6" d="M106.07,183.13c-27.92-2.85-57.73,1.94-79.31,14.4-35.25,20.35-35.84,52.17-.83,72.91,20.3,12.02,48.15,17.12,74.87,15.32,9.5-.02,29.94,.07,46.99,.1,11.65,.02,18.77-12.78,12.61-22.67-18.83-30.28-50.53-80.3-54.35-80.05Z"/>
              <path class="cls-15" d="M74.69,183.8v58.27c.18,11.33,7.76,22.64,22.74,31.28,30.32,17.51,79.48,17.51,109.8,0,15.34-8.86,22.92-20.5,22.74-32.11v-58.27l-155.28,.83Z"/>
              <g id="Axonometric_Cylinder" data-name="Axonometric Cylinder">
                <path class="cls-26" d="M69.58,184.81v50.1c.19,11.79,7.9,23.55,23.15,32.66l2.08-1.2v2.4c32.32,18.01,83.81,17.81,115.7-.6,16.31-9.42,24.37-21.8,24.18-34.14v-50.1l-165.11,.88Z"/>
                <path class="cls-9" d="M211.58,151.3l-2.17,1.25v-2.51c-32.32-17.99-83.78-17.78-115.65,.62-32.24,18.61-32.24,48.79,0,67.41,32.24,18.61,84.51,18.61,116.75,0,31.87-18.4,32.2-48.12,1.07-66.78Z"/>
                <path class="cls-13" d="M189.55,163.56c-22-12.73-54.67-11.64-74.15-.4-20.29,11.72-20.29,30.71,0,42.42,20.29,11.72,53.19,11.72,73.48,0,20.06-11.58,20.27-30.28,.67-42.03Z"/>
              </g>
              <path class="cls-13" d="M206.06,153.24c-29.78-17.19-78.06-17.19-107.85,0-29.78,17.19-29.78,45.07,0,62.26,29.78,17.19,78.06,17.19,107.85,0,29.78-17.19,29.78-45.07,0-62.26Zm-1.61,61.33c-28.89,16.68-75.73,16.68-104.62,0-28.89-16.68-28.89-43.72,0-60.4,28.89-16.68,75.73-16.68,104.62,0,28.89,16.68,28.89,43.72,0,60.4Z"/>
              <path class="cls-13" d="M98.01,214.43l-5.28,3.05,2.11,1.22,4.96-2.86c-.77-.29-1.36-.79-1.79-1.4Z"/>
              <polygon class="cls-13" points="204.28 153.02 206.26 154.37 209.41 152.55 209.42 150.05 204.28 153.02"/>
            </g>
            <g class="cls-3">
              <path class="cls-18" d="M100.85,189.2c2.51,8.92,12.02,17.32,28.52,22.24,14.78,4.4,30.66,4.41,45.45,.02,16.27-4.83,25.75-13.03,28.46-21.79,1.97-6.39,3.68-12.86,6.06-19.11L274.12,0H30.83L95.04,170.71c2.28,6.05,4.06,12.26,5.81,18.49Z"/>
            </g>
            <g id="_13" data-name="13">
              <g>
                <path class="cls-8" d="M113.14,137.13c8.38,2.14,14.89,1.58,18.17-.71l24.81-81.3c-25.06-39.78-60.33-37.24-79.79-13.33-8.49,10.43-12.57,23.9-11.59,37.31,1.96,26.94,21.01,51.04,48.4,58.03Z"/>
                <path class="cls-12" d="M117.56,53.88c13.11,13.85,11.19,11.75,17.57,7.08,8.75-6.42,19.51-9.78,18.78-12.35,0,0-8.48-11.07-13.84-14.88-12.07-8.58-30.66,11.54-22.51,20.16Z"/>
                <path class="cls-12" d="M180.75,157.71l-56.64-22.39s7.83,17.41-.39,38.58c-7.7,19.82,29.3,30.15,47.44,23.51,13.41-4.91,11.97-14.91,10.47-24.71-1.03-6.76-.87-15-.87-15Z"/>
                <path class="cls-14" d="M209.75,132c-.75-.87-2.79-2.8-2.79-2.8-.96-9.28,.41-16.17-3.01-21.68-.46-.74-.77-1.55-.79-2.42-.06-2.44-.11-5.3-1.06-10.66-.38-2.15-10.37-29.1-17.61-35.32-17.56-15.1-33.68-18.44-46.48-18.02-27.2,.88-41.92,26.1-41.51,43.02,.78,32.43,29.61,56.48,29.61,56.48,10.02,8.87,19.13,18.76,38.03,25.88,22.74,8.58,31.25,10.93,37.83,7.68,3.88-1.91,6.35-5.83,6.37-10.15,.02-4.01,.2-17.14,0-26.17,0,0,1.34-.85,1.95-1.86,.82-1.36,.18-3.16-.52-3.98Z"/>
                <path class="cls-12" d="M202,135.37c-1,0-2.14,.06-3.18,.4-1.98,.69-3.67,1.31-4.92,1.26-.96-.04-1.72-.87-1.71-1.74-.63,1.47,.76,3.14,5.11,1.97,2.5-.67,3.59-.62,7.06,.39,.68,.2,1.28,.33,1.83,.39,1.46,.17,2.96-.43,3.82-1.62,.22-.31,.36-.63,.46-.95-1.93,1.87-6.12,.26-8.48-.11Z"/>
                <path class="cls-8" d="M134.79,102.88c-3.13,3.69-2.61,4.91-2.11,8.9,.42,3.35,3.32,11.14,.36,12.77-5.69,3.12-12.57-5.07-17.97-5.23-2.96-.09-3.29,9.28-6.08,8.28-4.81-8.27-22.45-36.13-12.16-58.4,8.9-19.26,22.64-29.66,46.67-31.89,21.7-2.01,44.48,13.45,49.98,32.13,1.38,4.67-1.44,10.2-11.28,14.72-14.38,6.59-41.38,11.62-47.41,18.73Z"/>
                <path class="cls-17" d="M206.96,129.2c-.74-7.12,.28-11.15-.93-15.91-4.59,1.3-7.04,3.75-8.08,4.65-1.37,1.18,5.58,8.54,9,11.26Z"/>
                <path class="cls-17" d="M170.58,116.93c-6.99,2.37-14.39,5.61-14.39,5.61,12.47-10.94,25.06-10.96,29.92-10.94,0,0-9.93,3.43-15.53,5.33Z"/>
                <path class="cls-17" d="M164.74,133.89c-4.1,1.87-4.84,5.36-1.06,7.98,2.67,1.85,11.49,5.6,18.04,5.64,2.52,.02,4.77-1.7,5.44-4.13,1.41-5.12,.56-13.01,.45-13.85-.18-1.28-.77-6.09-5.17-2.76-7.37,5.57-12.81,4.87-17.71,7.11Z"/>
                <path class="cls-17" d="M202.76,132.76c2.43,2.94,4.25,3.52,5.78,3.35,1.23-.13,2.26-.99,2.03-2.21-.11-.58-.34-1.15-.64-1.64-.76-1.23-4.44-4.13-8.62-9.38-3.14-3.94-5.87-8.51-5.3-13.17,.77-6.27,5.28-9.57,6.71-11.09,0,0-.02-.53-.19-1.55-.1,.2-5.93,6.18-8.07,10.49-.51,1.02-.82,2.15-.93,3.31-.47,6.2,2.84,12.45,6.12,17.49,.95,1.46,1.96,3.01,3.11,4.41Z"/>
                <path class="cls-16" d="M209.35,132.44c-1.45-1.94-3.96-3.67-8.09-8.5-3.64-4.25-4.76-9.16-4.76-9.16,.57,5.78,8.43,18.1,10.45,19.17,1.92,1.02,3.26-.36,2.41-1.5Z"/>
                <path class="cls-12" d="M208.49,145.93c-.65-.44-1.97-1.3-3.08-.8-1.15,.52-1.41,.86-2.62,1.35-1.06,.43-2.96,.44-4.29,1.42-3.82,2.82-4.32,6.46-12.3,8.03,0,0,4.37,3.98,11.54,4.71,2.35,.24,4.78-.3,6.64-1.76,2.5-1.96,4.48-5.48,4.12-12.94Z"/>
                <path class="cls-23" d="M204.49,154.14c-1.02,.81-2.4,1.6-4.41,2.49-.43,.19-1.09,.37-1.88,.54-.14,.14-.27,.29-.21,.36,.97,1.13,8.79-3.39,6.5-3.39Z"/>
                <path class="cls-5" d="M188.83,155.92c4.68,1.33,5.08,.86,8.65,.65,1.96-.12,3.91-.66,5.55-1.74,3.74-2.47,4.2-5.84,5-7.95-1.59,1.52-8.97,7.47-19.19,9.04Z"/>
                <path class="cls-10" d="M206.96,147.65c-3.52,2.1-6.75,5.12-15.31,7.72,11.4-.44,13.94-5.48,15.31-7.72Z"/>
              </g>
              <path class="cls-5" d="M182.93,165.88c-17.32-.45-36.25-13.94-57.86-41.26-2.11-2.66-4.87-4.46-7.77-5.04-7.45-1.51-10.64,5.12-10.77,5.41l-1.97-.91c.04-.08,3.98-8.46,13.17-6.63,3.4,.69,6.61,2.76,9.04,5.82,21.19,26.78,39.58,40.01,56.22,40.44l-.06,2.17Z"/>
              <path class="cls-5" d="M188.83,163.91c0,2.29-2.81,4.14-6.27,4.14s-6.27-1.85-6.27-4.14,2.81-4.14,6.27-4.14,6.27,1.85,6.27,4.14Z"/>
              <g>
                <path class="cls-14" d="M136.28,147.77c-1.34-15.41-14.65-36.29-28.76-27-2.54,1.67-4.06,4.59-3.52,7.58,2.77,15.35,32.28,19.43,32.28,19.43Z"/>
                <path class="cls-11" d="M113.8,123.42c-1.59,.33-2.84,1.73-3.26,3.29-.42,1.57-.04,3.3,.91,4.62,1.18,1.65,2.64,1.68,3.13,1.15,.2-.21,.24-.54,.43-.75,3.52-3.75,8.22,6.6,10.71,7.46,1.07,.37,.46-4.29-1.3-7.96-1.02-2.11-5.5-8.89-10.62-7.82Z"/>
              </g>
              <path class="cls-5" d="M121.14,125.59c9.87,10.54,7.97,20.72,2.43,22.18-8.73,2.29-21.8-9.97-19.57-19.42,.51,1.74,2.29,4.83,4.06,4.26,2.74-.89,.92-2.3,1.55-5.52,.29-1.47,1.2-2.71,2.54-3.4,2.8-1.43,7-.22,8.99,1.91Z"/>
              <path class="cls-22" d="M122.57,137.67c7.02,8.34-1.13,14.22-9.82,7.47-11.41-8.86-1.33-20.72,9.82-7.47Z"/>
            </g>
            <g class="cls-28">
              <path class="cls-19" d="M100.85,189.2c2.51,8.92,12.02,17.32,28.52,22.24,14.78,4.4,30.66,4.41,45.45,.02,16.27-4.83,25.75-13.03,28.46-21.79,1.97-6.39,3.68-12.86,6.06-19.11L274.12,0H30.83L95.04,170.71c2.28,6.05,4.06,12.26,5.81,18.49Z"/>
            </g>
            <polygon class="cls-7" points="94.84 218.7 92.73 217.48 92.73 267.57 94.85 266.35 94.84 218.7"/>
          </g>
          <path class="cls-10" d="M212.63,241.11c0,1.81-1.47,4.12-3.28,5.17-1.81,1.04-3.28,.42-3.28-1.38s1.47-4.12,3.28-5.17c1.81-1.04,3.28-.42,3.28,1.38Z"/>
          <g class="cls-30">
            <path class="cls-24" d="M230.27,230.9c0,11.51-9.33,26.24-20.85,32.88-11.51,6.65-20.85,2.7-20.85-8.81s9.33-26.24,20.85-32.88c11.51-6.65,20.85-2.7,20.85,8.81Z"/>
          </g>
        </g>
      </g>
    </g>
  </g>
</svg>