<?xml version="1.0" encoding="UTF-8"?>
<svg xmlns="http://www.w3.org/2000/svg" viewBox="0 0 253.24 284.14">
  <defs>
    <style>
      .cls-1 {
        fill: #f5f9ff;
      }

      .cls-2 {
        fill: #0656d7;
      }

      .cls-3 {
        fill: #3dc4bd;
      }

      .cls-4 {
        fill: #003893;
        mix-blend-mode: multiply;
      }

      .cls-4, .cls-5 {
        opacity: .5;
      }

      .cls-6 {
        isolation: isolate;
      }

      .cls-5 {
        fill: #bbc2cd;
      }
    </style>
  </defs>
  <g class="cls-6">
    <g id="Layer_2" data-name="Layer 2">
      <g id="Layer_1-2" data-name="Layer 1">
        <g id="_9" data-name="9">
          <path class="cls-4" d="M69.31,240.49l-15.41,9.32h3.19c2.15,0,1.73,1.31-.94,2.93l-26.26,15.89c-2.67,1.62-6.58,2.92-8.73,2.92h-3.19l-15.41,9.32c-2.97,1.8-3.44,3.26-1.05,3.26H129.85c2.39,0,6.75-1.46,9.72-3.26l66.74-40.39c2.97-1.8,3.44-3.26,1.05-3.26H79.03c-2.39,0-6.75,1.46-9.72,3.26Z"/>
          <g>
            <path class="cls-2" d="M195.01,.79c1.57,0,2.48,1.09,2.48,2.98V196.66c0,3.34-2.75,7.65-6.12,9.6l-80.8,46.65c-1.02,.59-2.01,.9-2.86,.9-1.57,0-2.48-1.09-2.48-2.98V57.94c0-3.34,2.75-7.65,6.12-9.6l17.47-10.09v3.43c0,2.53,1.46,4.17,3.72,4.17,1.02,0,2.17-.35,3.31-1.01l31.79-18.35c3.5-2.02,6.25-6.38,6.25-9.91v-4.33L192.15,1.69c1.02-.59,2.01-.9,2.86-.9h0Zm0-.79c-.96,0-2.07,.33-3.25,1.01l-18.65,10.77v4.79c0,3.23-2.62,7.36-5.85,9.23l-31.79,18.35c-1.06,.61-2.06,.91-2.92,.91-1.75,0-2.93-1.21-2.93-3.38v-4.79l-18.65,10.77c-3.6,2.08-6.52,6.68-6.52,10.28V250.83c0,2.41,1.31,3.76,3.26,3.76,.96,0,2.07-.33,3.25-1.01l80.8-46.65c3.6-2.08,6.52-6.68,6.52-10.28V3.76c0-2.41-1.31-3.76-3.26-3.76h0Z"/>
            <path class="cls-3" d="M209.31,9.04c1.57,0,2.48,1.09,2.48,2.98V204.91c0,3.34-2.75,7.65-6.12,9.6l-80.8,46.65c-1.02,.59-2.01,.9-2.86,.9-1.57,0-2.48-1.09-2.48-2.98V66.19c0-3.34,2.75-7.65,6.12-9.6l17.47-10.09v3.43c0,2.53,1.46,4.17,3.72,4.17,1.02,0,2.17-.35,3.31-1.01l31.79-18.35c3.5-2.02,6.25-6.38,6.25-9.91v-4.33l18.26-10.54c1.02-.59,2.01-.9,2.86-.9h0Zm0-.79c-.96,0-2.07,.33-3.25,1.01l-18.65,10.77v4.79c0,3.23-2.62,7.36-5.85,9.23l-31.79,18.35c-1.06,.61-2.06,.91-2.92,.91-1.75,0-2.93-1.21-2.93-3.38v-4.79l-18.65,10.77c-3.6,2.08-6.52,6.68-6.52,10.28v192.89c0,2.41,1.31,3.76,3.26,3.76,.96,0,2.07-.33,3.25-1.01l80.8-46.65c3.6-2.08,6.52-6.68,6.52-10.28V12.02c0-2.41-1.31-3.76-3.26-3.76h0Z"/>
            <path class="cls-1" d="M220.67,17.7l-18.65,10.77v4.79c0,3.23-2.62,7.36-5.85,9.23l-31.79,18.35c-3.23,1.87-5.85,.76-5.85-2.47v-4.79l-18.65,10.77c-3.6,2.08-6.52,6.68-6.52,10.28v192.89c0,3.6,2.92,4.83,6.52,2.75l80.8-46.65c3.6-2.08,6.52-6.68,6.52-10.28V20.46c0-3.6-2.92-4.83-6.52-2.76Z"/>
            <path class="cls-5" d="M194.3,198.69l-60.94,35.18v-45.91l60.94-35.19c4.1-2.37,7.42-.96,7.42,3.14v31.07c0,4.1-3.32,9.34-7.42,11.71Zm32.89-10.73l-46.24,26.7c-4.1,2.37-7.42,7.61-7.42,11.71v9.73c0,4.1,3.32,5.5,7.42,3.14l46.24-26.7v-24.58Zm-93.83-99.66v24.58l60.94-35.19c4.1-2.37,7.42-7.61,7.42-11.71v-9.73c0-4.1-3.32-5.5-7.42-3.14l-60.94,35.19Zm32.27,23.23v9.73c0,4.1,3.32,5.5,7.42,3.14l54.14-31.26v-24.58l-54.14,31.26c-4.1,2.37-7.42,7.61-7.42,11.71Zm29.24,17.23v9.73c0,4.1,3.32,5.5,7.42,3.14l24.9-14.38v-24.58l-24.9,14.38c-4.1,2.37-7.42,7.61-7.42,11.71Z"/>
            <path class="cls-2" d="M245.82,100.7l-56.92,32.86c-4.1,2.37-7.42,.96-7.42-3.14v-9.73c0-4.1,3.32-9.34,7.42-11.71l56.92-32.86c4.1-2.37,7.42-.96,7.42,3.14v9.73c0,4.1-3.32,9.34-7.42,11.71Z"/>
            <path class="cls-3" d="M210.15,86.85l-63.69,36.77c-4.1,2.37-7.42,.96-7.42-3.14v-9.73c0-4.1,3.32-9.34,7.42-11.71l63.69-36.77c4.1-2.37,7.42-.96,7.42,3.14v9.73c0,4.1-3.32,9.34-7.42,11.71Z"/>
            <path class="cls-3" d="M210.15,207.85l-63.69,36.77c-4.1,2.37-7.42,.96-7.42-3.14v-31.07c0-4.1,3.32-9.34,7.42-11.71l63.69-36.77c4.1-2.37,7.42-.96,7.42,3.14v31.07c0,4.1-3.32,9.34-7.42,11.71Z"/>
            <path class="cls-2" d="M245.82,134.81l-27.68,15.98c-4.1,2.37-7.42,.96-7.42-3.14v-9.73c0-4.1,3.32-9.34,7.42-11.71l27.68-15.98c4.1-2.37,7.42-.96,7.42,3.14v9.73c0,4.1-3.32,9.34-7.42,11.71Z"/>
            <path class="cls-2" d="M245.82,220.09l-49.02,28.3c-4.1,2.37-7.42,.96-7.42-3.14v-9.73c0-4.1,3.32-9.34,7.42-11.71l49.02-28.3c4.1-2.37,7.42-.96,7.42,3.14v9.73c0,4.1-3.32,9.34-7.42,11.71Z"/>
            <g>
              <path class="cls-1" d="M241.29,90.46c1.85-1.07,3.36-3.44,3.36-5.29s-1.5-2.49-3.36-1.42c-1.85,1.07-3.36,3.44-3.36,5.29s1.5,2.49,3.36,1.42Z"/>
              <path class="cls-1" d="M241.29,91.83c-3.63,2.1-6.57,6.24-6.57,9.26l13.15-7.59c0-3.02-2.94-3.77-6.57-1.67Z"/>
            </g>
            <g>
              <path class="cls-1" d="M241.29,210.14c1.85-1.07,3.36-3.44,3.36-5.29s-1.5-2.49-3.36-1.42-3.36,3.44-3.36,5.29,1.5,2.49,3.36,1.42Z"/>
              <path class="cls-1" d="M241.29,211.51c-3.63,2.1-6.57,6.24-6.57,9.26l13.15-7.59c0-3.02-2.94-3.77-6.57-1.67Z"/>
            </g>
            <g>
              <path class="cls-1" d="M154.6,105.7v-1.58l-1.4,.58c-.12-.49-.34-.87-.64-1.17l.83-1.63-1.12-.47-1.15,1.49c-.46-.03-.98,.05-1.54,.25l-.22-1.27-1.58,.91-.22,1.52c-.56,.44-1.07,.96-1.54,1.53l-1.15-.17-1.12,1.76,.83,.67c-.3,.64-.52,1.28-.64,1.91l-1.4,1.03v1.58l1.4-.58c.12,.49,.34,.87,.64,1.17l-.83,1.63,1.12,.47,1.15-1.49c.46,.03,.98-.05,1.54-.25l.22,1.27,1.58-.91,.22-1.52c.56-.44,1.07-.96,1.54-1.53l1.15,.17,1.12-1.76-.83-.67c.3-.64,.52-1.28,.64-1.91l1.4-1.03Zm-6.02,4.64c-1.08,.62-1.95,.25-1.95-.83s.87-2.46,1.95-3.08c1.08-.62,1.95-.25,1.95,.83s-.87,2.46-1.95,3.08Z"/>
              <path class="cls-1" d="M161.6,107.29v-1.24s-1.08,.44-1.08,.44c-.09-.38-.26-.69-.49-.92l.66-1.27-.86-.38-.9,1.16c-.36-.03-.76,.03-1.2,.18l-.16-1-1.23,.7-.18,1.2c-.44,.34-.84,.75-1.21,1.19l-.89-.14-.88,1.37,.64,.53c-.24,.5-.41,1-.51,1.49l-1.09,.79v1.24s1.08-.44,1.08-.44c.09,.38,.26,.69,.49,.92l-.66,1.27,.86,.38,.9-1.16c.36,.03,.76-.03,1.2-.18l.16,1,1.23-.7,.18-1.2c.44-.34,.84-.75,1.21-1.19l.89,.14,.88-1.37-.64-.53c.24-.5,.41-1,.51-1.49l1.09-.79Zm-4.72,4.7c-1.46,.83-2.63,.31-2.61-1.16,.01-1.47,1.21-3.33,2.67-4.15s2.63-.31,2.61,1.16c-.01,1.47-1.21,3.33-2.67,4.15Z"/>
              <path class="cls-1" d="M164.55,99.13v-.86s-.75,.31-.75,.31c-.06-.27-.18-.48-.34-.64l.46-.88-.6-.27-.63,.81c-.25-.02-.53,.02-.83,.12l-.11-.69-.86,.49-.13,.83c-.3,.24-.58,.52-.84,.82l-.62-.1-.61,.95,.45,.37c-.16,.35-.29,.7-.36,1.04l-.76,.55v.86s.75-.31,.75-.31c.06,.27,.18,.48,.34,.64l-.46,.88,.6,.27,.63-.81c.25,.02,.53-.02,.83-.12l.11,.69,.86-.49,.13-.83c.3-.24,.58-.52,.84-.82l.62,.1,.61-.95-.45-.37c.16-.35,.29-.7,.36-1.04l.76-.55Zm-3.27,2.21c-.43,.25-.78,.09-.77-.34,0-.43,.36-.98,.79-1.23,.43-.25,.78-.09,.77,.34,0,.43-.36,.98-.79,1.23Z"/>
            </g>
            <g>
              <path class="cls-1" d="M154.6,206.42v-1.58l-1.4,.58c-.12-.49-.34-.87-.64-1.17l.83-1.63-1.12-.47-1.15,1.49c-.46-.03-.98,.05-1.54,.25l-.22-1.27-1.58,.91-.22,1.52c-.56,.44-1.07,.96-1.54,1.53l-1.15-.17-1.12,1.76,.83,.67c-.3,.64-.52,1.28-.64,1.91l-1.4,1.03v1.58l1.4-.58c.12,.49,.34,.87,.64,1.17l-.83,1.63,1.12,.47,1.15-1.49c.46,.03,.98-.05,1.54-.25l.22,1.27,1.58-.91,.22-1.52c.56-.44,1.07-.96,1.54-1.53l1.15,.17,1.12-1.76-.83-.67c.3-.64,.52-1.28,.64-1.91l1.4-1.03Zm-6.02,4.64c-1.08,.62-1.95,.25-1.95-.83s.87-2.46,1.95-3.08,1.95-.25,1.95,.83-.87,2.46-1.95,3.08Z"/>
              <path class="cls-1" d="M161.6,208.01v-1.24s-1.08,.44-1.08,.44c-.09-.38-.26-.69-.49-.92l.66-1.27-.86-.38-.9,1.16c-.36-.03-.76,.03-1.2,.18l-.16-1-1.23,.7-.18,1.2c-.44,.34-.84,.75-1.21,1.19l-.89-.14-.88,1.37,.64,.53c-.24,.5-.41,1-.51,1.49l-1.09,.79v1.24s1.08-.44,1.08-.44c.09,.38,.26,.69,.49,.92l-.66,1.27,.86,.38,.9-1.16c.36,.03,.76-.03,1.2-.18l.16,1,1.23-.7,.18-1.2c.44-.34,.84-.75,1.21-1.19l.89,.14,.88-1.37-.64-.53c.24-.5,.41-1,.51-1.49l1.09-.79Zm-4.72,4.7c-1.46,.83-2.63,.31-2.61-1.16,.01-1.47,1.21-3.33,2.67-4.15,1.46-.83,2.63-.31,2.61,1.16-.01,1.47-1.21,3.33-2.67,4.15Z"/>
              <path class="cls-1" d="M164.55,199.86v-.86s-.75,.31-.75,.31c-.06-.27-.18-.48-.34-.64l.46-.88-.6-.27-.63,.81c-.25-.02-.53,.02-.83,.12l-.11-.69-.86,.49-.13,.83c-.3,.24-.58,.52-.84,.82l-.62-.1-.61,.95,.45,.37c-.16,.35-.29,.7-.36,1.04l-.76,.55v.86s.75-.31,.75-.31c.06,.27,.18,.48,.34,.64l-.46,.88,.6,.27,.63-.81c.25,.02,.53-.02,.83-.12l.11,.69,.86-.49,.13-.83c.3-.24,.58-.52,.84-.82l.62,.1,.61-.95-.45-.37c.16-.35,.29-.7,.36-1.04l.76-.55Zm-3.27,2.21c-.43,.25-.78,.09-.77-.34,0-.43,.36-.98,.79-1.23,.43-.25,.78-.09,.77,.34,0,.43-.36,.98-.79,1.23Z"/>
            </g>
            <g>
              <g>
                <polygon class="cls-1" points="167.98 92.88 167.98 94.17 174.92 90.17 174.92 88.87 167.98 92.88"/>
                <polygon class="cls-1" points="180.53 86.93 176.66 89.16 176.66 87.87 180.53 85.63 180.53 86.93"/>
                <polygon class="cls-1" points="185.58 84.01 182.27 85.92 182.27 84.62 185.58 82.72 185.58 84.01"/>
                <polygon class="cls-1" points="168.19 96.28 168.19 97.57 172.58 95.04 172.58 93.74 168.19 96.28"/>
                <polygon class="cls-1" points="177.72 92.07 174.32 94.03 174.32 92.74 177.72 90.77 177.72 92.07"/>
                <polygon class="cls-1" points="189.45 85.3 179.47 91.06 179.47 89.76 189.45 84 189.45 85.3"/>
                <polygon class="cls-1" points="167.98 99.91 167.98 101.21 174.92 97.21 174.92 95.91 167.98 99.91"/>
                <polygon class="cls-1" points="180.53 93.97 176.66 96.2 176.66 94.9 180.53 92.67 180.53 93.97"/>
                <polygon class="cls-1" points="185.58 91.05 182.27 92.96 182.27 91.66 185.58 89.76 185.58 91.05"/>
                <polygon class="cls-1" points="168.19 103.32 168.19 104.61 172.58 102.08 172.58 100.78 168.19 103.32"/>
                <polygon class="cls-1" points="177.72 99.1 174.32 101.07 174.32 99.77 177.72 97.81 177.72 99.1"/>
                <polygon class="cls-1" points="190.31 91.84 179.47 98.1 179.47 96.8 190.31 90.54 190.31 91.84"/>
              </g>
              <g>
                <polygon class="cls-1" points="193.33 79.54 187.3 83.02 187.3 81.72 193.33 78.24 193.33 79.54"/>
                <polygon class="cls-1" points="198.99 76.27 195.07 78.53 195.07 77.24 198.99 74.97 198.99 76.27"/>
                <polygon class="cls-1" points="210.48 69.64 200.73 75.26 200.73 73.97 210.48 68.34 210.48 69.64"/>
                <polygon class="cls-1" points="196.67 81.13 191.18 84.3 191.18 83 196.67 79.83 196.67 81.13"/>
                <polygon class="cls-1" points="202.33 77.86 198.41 80.12 198.41 78.83 202.33 76.57 202.33 77.86"/>
                <polygon class="cls-1" points="210.35 73.23 204.07 76.86 204.07 75.56 210.35 71.94 210.35 73.23"/>
                <polygon class="cls-1" points="193.33 86.58 187.3 90.06 187.3 88.76 193.33 85.28 193.33 86.58"/>
                <polygon class="cls-1" points="198.99 83.31 195.07 85.57 195.07 84.28 198.99 82.01 198.99 83.31"/>
                <polygon class="cls-1" points="208.86 77.61 200.73 82.3 200.73 81.01 208.86 76.31 208.86 77.61"/>
                <polygon class="cls-1" points="196.67 88.17 192.04 90.84 192.04 89.54 196.67 86.87 196.67 88.17"/>
                <polygon class="cls-1" points="202.33 84.9 198.41 87.16 198.41 85.87 202.33 83.6 202.33 84.9"/>
                <polygon class="cls-1" points="206.75 82.34 204.07 83.89 204.07 82.6 206.75 81.05 206.75 82.34"/>
              </g>
            </g>
            <g>
              <g>
                <polygon class="cls-1" points="167.98 191.29 167.98 192.59 174.92 188.58 174.92 187.29 167.98 191.29"/>
                <polygon class="cls-1" points="180.53 185.34 176.66 187.58 176.66 186.28 180.53 184.05 180.53 185.34"/>
                <polygon class="cls-1" points="185.58 182.43 182.27 184.34 182.27 183.04 185.58 181.13 185.58 182.43"/>
                <polygon class="cls-1" points="168.19 194.69 168.19 195.99 172.58 193.45 172.58 192.16 168.19 194.69"/>
                <polygon class="cls-1" points="177.72 190.48 174.32 192.45 174.32 191.15 177.72 189.19 177.72 190.48"/>
                <polygon class="cls-1" points="188.59 184.21 179.47 189.48 179.47 188.18 188.59 182.91 188.59 184.21"/>
                <polygon class="cls-1" points="167.98 198.33 167.98 199.63 174.92 195.62 174.92 194.33 167.98 198.33"/>
                <polygon class="cls-1" points="180.53 192.38 176.66 194.62 176.66 193.32 180.53 191.09 180.53 192.38"/>
                <polygon class="cls-1" points="185.58 189.47 182.27 191.38 182.27 190.08 185.58 188.17 185.58 189.47"/>
                <polygon class="cls-1" points="168.19 201.73 168.19 203.03 172.58 200.49 172.58 199.2 168.19 201.73"/>
                <polygon class="cls-1" points="177.72 197.52 174.32 199.49 174.32 198.19 177.72 196.23 177.72 197.52"/>
                <polygon class="cls-1" points="189.45 190.75 179.47 196.52 179.47 195.22 189.45 189.45 189.45 190.75"/>
                <polygon class="cls-1" points="167.98 205.37 167.98 206.67 174.92 202.66 174.92 201.36 167.98 205.37"/>
                <polygon class="cls-1" points="180.53 199.42 176.66 201.66 176.66 200.36 180.53 198.12 180.53 199.42"/>
                <polygon class="cls-1" points="185.58 196.51 182.27 198.41 182.27 197.12 185.58 195.21 185.58 196.51"/>
                <polygon class="cls-1" points="168.19 208.77 168.19 210.07 172.58 207.53 172.58 206.23 168.19 208.77"/>
                <polygon class="cls-1" points="177.72 204.56 174.32 206.53 174.32 205.23 177.72 203.26 177.72 204.56"/>
                <polygon class="cls-1" points="190.31 197.29 179.47 203.55 179.47 202.26 190.31 196 190.31 197.29"/>
              </g>
              <g>
                <polygon class="cls-1" points="193.33 177.96 187.3 181.43 187.3 180.14 193.33 176.66 193.33 177.96"/>
                <polygon class="cls-1" points="198.99 174.69 195.07 176.95 195.07 175.65 198.99 173.39 198.99 174.69"/>
                <polygon class="cls-1" points="211.71 167.34 200.73 173.68 200.73 172.38 211.71 166.05 211.71 167.34"/>
                <polygon class="cls-1" points="196.67 179.55 190.31 183.21 190.31 181.92 196.67 178.25 196.67 179.55"/>
                <polygon class="cls-1" points="202.33 176.28 198.41 178.54 198.41 177.25 202.33 174.98 202.33 176.28"/>
                <polygon class="cls-1" points="208.86 172.51 204.07 175.27 204.07 173.98 208.86 171.21 208.86 172.51"/>
                <polygon class="cls-1" points="193.33 184.99 187.3 188.47 187.3 187.18 193.33 183.7 193.33 184.99"/>
                <polygon class="cls-1" points="198.99 181.73 195.07 183.99 195.07 182.69 198.99 180.43 198.99 181.73"/>
                <polygon class="cls-1" points="207 177.1 200.73 180.72 200.73 179.42 207 175.8 207 177.1"/>
                <polygon class="cls-1" points="196.67 186.59 191.18 189.75 191.18 188.46 196.67 185.29 196.67 186.59"/>
                <polygon class="cls-1" points="202.33 183.32 198.41 185.58 198.41 184.28 202.33 182.02 202.33 183.32"/>
                <polygon class="cls-1" points="210.35 178.69 204.07 182.31 204.07 181.01 210.35 177.39 210.35 178.69"/>
                <polygon class="cls-1" points="193.33 192.03 187.3 195.51 187.3 194.22 193.33 190.74 193.33 192.03"/>
                <polygon class="cls-1" points="198.99 188.76 195.07 191.03 195.07 189.73 198.99 187.47 198.99 188.76"/>
                <polygon class="cls-1" points="208.86 183.06 200.73 187.76 200.73 186.46 208.86 181.77 208.86 183.06"/>
                <polygon class="cls-1" points="196.67 193.62 192.04 196.3 192.04 195 196.67 192.33 196.67 193.62"/>
                <polygon class="cls-1" points="202.33 190.36 198.41 192.62 198.41 191.32 202.33 189.06 202.33 190.36"/>
                <polygon class="cls-1" points="206.75 187.8 204.07 189.35 204.07 188.05 206.75 186.5 206.75 187.8"/>
              </g>
            </g>
            <g>
              <g>
                <polygon class="cls-1" points="230.46 92.83 230.46 94.13 223.52 98.13 223.52 96.84 230.46 92.83"/>
                <polygon class="cls-1" points="217.91 101.38 221.78 99.14 221.78 97.84 217.91 100.08 217.91 101.38"/>
                <polygon class="cls-1" points="212.86 104.29 216.17 102.38 216.17 101.08 212.86 102.99 212.86 104.29"/>
                <polygon class="cls-1" points="230.25 96.47 230.25 97.77 225.86 100.3 225.86 99.01 230.25 96.47"/>
                <polygon class="cls-1" points="220.71 103.27 224.12 101.31 224.12 100.01 220.71 101.98 220.71 103.27"/>
                <polygon class="cls-1" points="209.85 109.55 218.97 104.28 218.97 102.98 209.85 108.25 209.85 109.55"/>
                <polygon class="cls-1" points="230.46 99.87 230.46 101.17 223.52 105.17 223.52 103.88 230.46 99.87"/>
                <polygon class="cls-1" points="217.91 108.41 221.78 106.18 221.78 104.88 217.91 107.12 217.91 108.41"/>
                <polygon class="cls-1" points="212.86 111.33 216.17 109.42 216.17 108.12 212.86 110.03 212.86 111.33"/>
              </g>
              <g>
                <polygon class="cls-1" points="205.11 108.76 211.14 105.28 211.14 103.99 205.11 107.47 205.11 108.76"/>
                <polygon class="cls-1" points="199.45 112.03 203.37 109.77 203.37 108.47 199.45 110.74 199.45 112.03"/>
                <polygon class="cls-1" points="188.58 118.31 197.71 113.04 197.71 111.74 188.58 117.01 188.58 118.31"/>
                <polygon class="cls-1" points="201.77 114.21 208.12 110.54 208.12 109.25 201.77 112.91 201.77 114.21"/>
                <polygon class="cls-1" points="196.11 117.48 200.03 115.22 200.03 113.92 196.11 116.18 196.11 117.48"/>
                <polygon class="cls-1" points="191.43 120.18 194.37 118.48 194.37 117.19 191.43 118.88 191.43 120.18"/>
                <polygon class="cls-1" points="205.11 115.8 211.14 112.32 211.14 111.03 205.11 114.5 205.11 115.8"/>
                <polygon class="cls-1" points="199.45 119.07 203.37 116.81 203.37 115.51 199.45 117.77 199.45 119.07"/>
                <polygon class="cls-1" points="193.29 122.63 197.71 120.08 197.71 118.78 193.29 121.33 193.29 122.63"/>
              </g>
            </g>
            <g>
              <g>
                <polygon class="cls-1" points="143.79 230.29 143.79 231.59 150.73 227.58 150.73 226.29 143.79 230.29"/>
                <polygon class="cls-1" points="156.34 224.34 152.47 226.58 152.47 225.28 156.34 223.05 156.34 224.34"/>
                <polygon class="cls-1" points="161.38 221.43 158.08 223.34 158.08 222.04 161.38 220.14 161.38 221.43"/>
                <polygon class="cls-1" points="143.99 233.69 143.99 234.99 148.39 232.45 148.39 231.16 143.99 233.69"/>
                <polygon class="cls-1" points="153.53 229.48 150.13 231.45 150.13 230.15 153.53 228.19 153.53 229.48"/>
                <polygon class="cls-1" points="164.4 223.21 155.27 228.48 155.27 227.18 164.4 221.91 164.4 223.21"/>
                <polygon class="cls-1" points="143.79 237.33 143.79 238.63 150.73 234.62 150.73 233.33 143.79 237.33"/>
                <polygon class="cls-1" points="156.34 231.38 152.47 233.62 152.47 232.32 156.34 230.09 156.34 231.38"/>
                <polygon class="cls-1" points="161.38 228.47 158.08 230.38 158.08 229.08 161.38 227.17 161.38 228.47"/>
              </g>
              <g>
                <polygon class="cls-1" points="169.13 216.96 163.11 220.44 163.11 219.14 169.13 215.66 169.13 216.96"/>
                <polygon class="cls-1" points="174.8 213.69 170.88 215.95 170.88 214.65 174.8 212.39 174.8 213.69"/>
                <polygon class="cls-1" points="172.47 218.55 166.12 222.22 166.12 220.92 172.47 217.25 172.47 218.55"/>
                <polygon class="cls-1" points="178.14 215.28 174.22 217.54 174.22 216.25 178.14 213.98 178.14 215.28"/>
                <polygon class="cls-1" points="184.67 211.51 179.88 214.27 179.88 212.98 184.67 210.21 184.67 211.51"/>
                <polygon class="cls-1" points="169.13 224 163.11 227.47 163.11 226.18 169.13 222.7 169.13 224"/>
                <polygon class="cls-1" points="174.8 220.73 170.88 222.99 170.88 221.69 174.8 219.43 174.8 220.73"/>
                <polygon class="cls-1" points="182.81 216.1 176.54 219.72 176.54 218.42 182.81 214.8 182.81 216.1"/>
              </g>
            </g>
            <g>
              <g>
                <polygon class="cls-1" points="176.65 211.32 176.65 212.62 192.28 203.6 192.28 202.3 176.65 211.32"/>
                <polygon class="cls-1" points="197.89 200.36 194.02 202.59 194.02 201.29 197.89 199.06 197.89 200.36"/>
                <polygon class="cls-1" points="202.93 197.44 199.63 199.35 199.63 198.05 202.93 196.15 202.93 197.44"/>
                <polygon class="cls-1" points="186.24 209.3 186.24 210.6 189.94 208.47 189.94 207.17 186.24 209.3"/>
                <polygon class="cls-1" points="195.08 205.49 191.68 207.46 191.68 206.16 195.08 204.2 195.08 205.49"/>
                <polygon class="cls-1" points="205.95 199.22 196.82 204.49 196.82 203.19 205.95 197.93 205.95 199.22"/>
                <polygon class="cls-1" points="185.34 213.34 185.34 214.64 192.28 210.63 192.28 209.34 185.34 213.34"/>
                <polygon class="cls-1" points="197.89 207.39 194.02 209.63 194.02 208.33 197.89 206.1 197.89 207.39"/>
                <polygon class="cls-1" points="202.93 204.48 199.63 206.39 199.63 205.09 202.93 203.18 202.93 204.48"/>
              </g>
              <polygon class="cls-1" points="210.68 192.97 204.66 196.45 204.66 195.15 210.68 191.67 210.68 192.97"/>
            </g>
            <g>
              <g>
                <polygon class="cls-1" points="247.46 115.55 247.46 116.84 240.52 120.85 240.52 119.55 247.46 115.55"/>
                <polygon class="cls-1" points="234.91 124.09 238.78 121.85 238.78 120.56 234.91 122.79 234.91 124.09"/>
                <polygon class="cls-1" points="229.86 127 233.17 125.09 233.17 123.8 229.86 125.7 229.86 127"/>
                <polygon class="cls-1" points="247.25 119.18 247.25 120.48 242.86 123.01 242.86 121.72 247.25 119.18"/>
                <polygon class="cls-1" points="237.71 125.99 241.12 124.02 241.12 122.72 237.71 124.69 237.71 125.99"/>
                <polygon class="cls-1" points="226.85 132.26 235.97 126.99 235.97 125.7 226.85 130.96 226.85 132.26"/>
                <polygon class="cls-1" points="247.46 122.58 247.46 123.88 240.52 127.88 240.52 126.59 247.46 122.58"/>
                <polygon class="cls-1" points="234.91 131.13 238.78 128.89 238.78 127.59 234.91 129.83 234.91 131.13"/>
                <polygon class="cls-1" points="229.86 134.04 233.17 132.13 233.17 130.84 229.86 132.74 229.86 134.04"/>
                <polygon class="cls-1" points="247.25 126.22 247.25 127.52 242.86 130.05 242.86 128.76 247.25 126.22"/>
                <polygon class="cls-1" points="237.71 133.02 241.12 131.06 241.12 129.76 237.71 131.73 237.71 133.02"/>
                <polygon class="cls-1" points="225.99 139.79 235.97 134.03 235.97 132.73 225.99 138.5 225.99 139.79"/>
              </g>
              <g>
                <polygon class="cls-1" points="222.11 131.47 228.14 128 228.14 126.7 222.11 130.18 222.11 131.47"/>
                <polygon class="cls-1" points="216.45 134.74 220.37 132.48 220.37 131.18 216.45 133.45 216.45 134.74"/>
                <polygon class="cls-1" points="218.77 136.92 225.13 133.25 225.13 131.96 218.77 135.63 218.77 136.92"/>
                <polygon class="cls-1" points="222.11 138.51 228.14 135.03 228.14 133.74 222.11 137.22 222.11 138.51"/>
              </g>
            </g>
            <g>
              <g>
                <polygon class="cls-1" points="230.59 210.49 230.59 211.79 223.66 215.79 223.66 214.5 230.59 210.49"/>
                <polygon class="cls-1" points="218.04 219.03 221.92 216.8 221.92 215.5 218.04 217.74 218.04 219.03"/>
                <polygon class="cls-1" points="213 221.95 216.3 220.04 216.3 218.74 213 220.65 213 221.95"/>
                <polygon class="cls-1" points="230.39 214.13 230.39 215.43 226 217.96 226 216.67 230.39 214.13"/>
                <polygon class="cls-1" points="220.85 220.93 224.25 218.97 224.25 217.67 220.85 219.64 220.85 220.93"/>
                <polygon class="cls-1" points="209.99 227.21 219.11 221.94 219.11 220.64 209.99 225.91 209.99 227.21"/>
                <polygon class="cls-1" points="230.59 217.53 230.59 218.83 223.66 222.83 223.66 221.54 230.59 217.53"/>
                <polygon class="cls-1" points="218.04 226.07 221.92 223.84 221.92 222.54 218.04 224.78 218.04 226.07"/>
                <polygon class="cls-1" points="213 228.99 216.3 227.08 216.3 225.78 213 227.69 213 228.99"/>
                <polygon class="cls-1" points="230.39 221.17 230.39 222.47 226 225 226 223.71 230.39 221.17"/>
                <polygon class="cls-1" points="220.85 227.97 224.25 226.01 224.25 224.71 220.85 226.68 220.85 227.97"/>
                <polygon class="cls-1" points="209.12 234.74 219.11 228.98 219.11 227.68 209.12 233.45 209.12 234.74"/>
              </g>
              <g>
                <polygon class="cls-1" points="205.25 226.42 211.27 222.94 211.27 221.65 205.25 225.13 205.25 226.42"/>
                <polygon class="cls-1" points="196.11 231.7 203.51 227.43 203.51 226.13 196.11 230.4 196.11 231.7"/>
                <polygon class="cls-1" points="201.91 231.87 208.26 228.2 208.26 226.91 201.91 230.57 201.91 231.87"/>
                <polygon class="cls-1" points="196.25 235.14 200.17 232.88 200.17 231.58 196.25 233.84 196.25 235.14"/>
                <polygon class="cls-1" points="205.25 233.46 211.27 229.98 211.27 228.69 205.25 232.16 205.25 233.46"/>
                <polygon class="cls-1" points="199.59 236.73 203.51 234.47 203.51 233.17 199.59 235.43 199.59 236.73"/>
                <polygon class="cls-1" points="201.91 238.91 207.4 235.74 207.4 234.44 201.91 237.61 201.91 238.91"/>
              </g>
            </g>
          </g>
        </g>
      </g>
    </g>
  </g>
</svg>